<svg id="visual" viewBox="0 0 900 600" width="900" height="600" xmlns="http://www.w3.org/2000/svg" xmlns:xlink="http://www.w3.org/1999/xlink" version="1.1"><rect x="0" y="0" width="900" height="600" fill="#131316"></rect><path d="M691 600L702.7 590C714.3 580 737.7 560 750.2 540C762.7 520 764.3 500 755.3 480C746.3 460 726.7 440 728 420C729.3 400 751.7 380 759.3 360C767 340 760 320 743.8 300C727.7 280 702.3 260 691.7 240C681 220 685 200 693.3 180C701.7 160 714.3 140 721.3 120C728.3 100 729.7 80 730.3 60C731 40 731 20 731 10L731 0L900 0L900 10C900 20 900 40 900 60C900 80 900 100 900 120C900 140 900 160 900 180C900 200 900 220 900 240C900 260 900 280 900 300C900 320 900 340 900 360C900 380 900 400 900 420C900 440 900 460 900 480C900 500 900 520 900 540C900 560 900 580 900 590L900 600Z" fill="#666666"></path><path d="M786 600L789 590C792 580 798 560 790.8 540C783.7 520 763.3 500 766 480C768.7 460 794.3 440 803.2 420C812 400 804 380 802.2 360C800.3 340 804.7 320 796.3 300C788 280 767 260 758 240C749 220 752 200 751.5 180C751 160 747 140 750.5 120C754 100 765 80 770.3 60C775.7 40 775.3 20 775.2 10L775 0L900 0L900 10C900 20 900 40 900 60C900 80 900 100 900 120C900 140 900 160 900 180C900 200 900 220 900 240C900 260 900 280 900 300C900 320 900 340 900 360C900 380 900 400 900 420C900 440 900 460 900 480C900 500 900 520 900 540C900 560 900 580 900 590L900 600Z" fill="#a2ad52"></path><path d="M800 600L800.3 590C800.7 580 801.3 560 810.8 540C820.3 520 838.7 500 851.2 480C863.7 460 870.3 440 862.3 420C854.3 400 831.7 380 825.5 360C819.3 340 829.7 320 826.8 300C824 280 808 260 802.8 240C797.7 220 803.3 200 805.8 180C808.3 160 807.7 140 807 120C806.3 100 805.7 80 815.8 60C826 40 847 20 857.5 10L868 0L900 0L900 10C900 20 900 40 900 60C900 80 900 100 900 120C900 140 900 160 900 180C900 200 900 220 900 240C900 260 900 280 900 300C900 320 900 340 900 360C900 380 900 400 900 420C900 440 900 460 900 480C900 500 900 520 900 540C900 560 900 580 900 590L900 600Z" fill="#dafb00"></path></svg>