<svg id="visual" viewBox="0 0 960 540" width="960" height="540" xmlns="http://www.w3.org/2000/svg" xmlns:xlink="http://www.w3.org/1999/xlink" version="1.1"><rect x="0" y="0" width="960" height="540" fill="#666666"></rect><defs><linearGradient id="grad1_0" x1="43.8%" y1="100%" x2="100%" y2="0%"><stop offset="14.444444444444446%" stop-color="#d7fb00" stop-opacity="1"></stop><stop offset="85.55555555555554%" stop-color="#d7fb00" stop-opacity="1"></stop></linearGradient></defs><defs><linearGradient id="grad1_1" x1="43.8%" y1="100%" x2="100%" y2="0%"><stop offset="14.444444444444446%" stop-color="#d7fb00" stop-opacity="1"></stop><stop offset="85.55555555555554%" stop-color="#666666" stop-opacity="1"></stop></linearGradient></defs><defs><linearGradient id="grad2_0" x1="0%" y1="100%" x2="56.3%" y2="0%"><stop offset="14.444444444444446%" stop-color="#d7fb00" stop-opacity="1"></stop><stop offset="85.55555555555554%" stop-color="#d7fb00" stop-opacity="1"></stop></linearGradient></defs><defs><linearGradient id="grad2_1" x1="0%" y1="100%" x2="56.3%" y2="0%"><stop offset="14.444444444444446%" stop-color="#666666" stop-opacity="1"></stop><stop offset="85.55555555555554%" stop-color="#d7fb00" stop-opacity="1"></stop></linearGradient></defs><g transform="translate(960, 540)"><path d="M-216 0C-206.7 -21.4 -197.5 -42.8 -187.4 -60.9C-177.2 -78.9 -166.2 -93.6 -157.8 -114.6C-149.3 -135.6 -143.3 -162.9 -127 -174.7C-110.6 -186.6 -83.8 -183.1 -60.9 -187.4C-38 -191.7 -19 -203.8 0 -216L0 0Z" fill="#a1ad52"></path><path d="M-108 0C-103.4 -10.7 -98.7 -21.4 -93.7 -30.4C-88.6 -39.5 -83.1 -46.8 -78.9 -57.3C-74.6 -67.8 -71.7 -81.4 -63.5 -87.4C-55.3 -93.3 -41.9 -91.5 -30.4 -93.7C-19 -95.8 -9.5 -101.9 0 -108L0 0Z" fill="#d7fb00"></path></g><g transform="translate(0, 0)"><path d="M216 0C217 24.5 218 49 205.4 66.7C192.9 84.5 166.8 95.6 148.1 107.6C129.3 119.5 117.7 132.3 104 143.2C90.4 154.1 74.6 163.2 56.9 175C39.2 186.8 19.6 201.4 0 216L0 0Z" fill="#a1ad52"></path><path d="M108 0C108.5 12.2 109 24.5 102.7 33.4C96.4 42.3 83.4 47.8 74 53.8C64.6 59.8 58.9 66.1 52 71.6C45.2 77.1 37.3 81.6 28.4 87.5C19.6 93.4 9.8 100.7 0 108L0 0Z" fill="#d7fb00"></path></g></svg>