<svg id="visual" viewBox="0 0 3840 2160" width="3840" height="2160" xmlns="http://www.w3.org/2000/svg" xmlns:xlink="http://www.w3.org/1999/xlink" version="1.1"><rect x="0" y="0" width="3840" height="2160" fill="rgba(0%,0%,0%,0%)"></rect><path d="M0 1353L106.7 1383.8C213.3 1414.7 426.7 1476.3 640 1525.8C853.3 1575.3 1066.7 1612.7 1280 1602.7C1493.3 1592.7 1706.7 1535.3 1920 1521C2133.3 1506.7 2346.7 1535.3 2560 1545C2773.3 1554.7 2986.7 1545.3 3200 1509.3C3413.3 1473.3 3626.7 1410.7 3733.3 1379.3L3840 1348L3840 2161L3733.3 2161C3626.7 2161 3413.3 2161 3200 2161C2986.7 2161 2773.3 2161 2560 2161C2346.7 2161 2133.3 2161 1920 2161C1706.7 2161 1493.3 2161 1280 2161C1066.7 2161 853.3 2161 640 2161C426.7 2161 213.3 2161 106.7 2161L0 2161Z" fill="#d7fb00"></path><path d="M0 1836L106.7 1811.2C213.3 1786.3 426.7 1736.7 640 1716.3C853.3 1696 1066.7 1705 1280 1691C1493.3 1677 1706.7 1640 1920 1616C2133.3 1592 2346.7 1581 2560 1620C2773.3 1659 2986.7 1748 3200 1787.2C3413.3 1826.3 3626.7 1815.7 3733.3 1810.3L3840 1805L3840 2161L3733.3 2161C3626.7 2161 3413.3 2161 3200 2161C2986.7 2161 2773.3 2161 2560 2161C2346.7 2161 2133.3 2161 1920 2161C1706.7 2161 1493.3 2161 1280 2161C1066.7 2161 853.3 2161 640 2161C426.7 2161 213.3 2161 106.7 2161L0 2161Z" fill="#a1ad52"></path><path d="M0 1908L106.7 1895.2C213.3 1882.3 426.7 1856.7 640 1851C853.3 1845.3 1066.7 1859.7 1280 1890.3C1493.3 1921 1706.7 1968 1920 1967.5C2133.3 1967 2346.7 1919 2560 1911.8C2773.3 1904.7 2986.7 1938.3 3200 1929.3C3413.3 1920.3 3626.7 1868.7 3733.3 1842.8L3840 1817L3840 2161L3733.3 2161C3626.7 2161 3413.3 2161 3200 2161C2986.7 2161 2773.3 2161 2560 2161C2346.7 2161 2133.3 2161 1920 2161C1706.7 2161 1493.3 2161 1280 2161C1066.7 2161 853.3 2161 640 2161C426.7 2161 213.3 2161 106.7 2161L0 2161Z" fill="#666666"></path></svg>